{"title":"Around The World 1967 DvDRip X264 AAC","uid":8357165,"size":784459223,"categoryP":"video","categoryS":"movies","magnet":"?xt=urn:btih:6ece50828b037baabad1bf335d794ed2da7e726d&amp;dn=Around+The+World+1967+DvDRip+X264+AAC&amp;tr=udp%3A%2F%2Ftracker.openbittorrent.com%3A80&amp;tr=udp%3A%2F%2Fopen.demonii.com%3A1337&amp;tr=udp%3A%2F%2Ftracker.coppersurfer.tk%3A6969&amp;tr=udp%3A%2F%2Fexodus.desync.com%3A6969","seeders":1,"leechers":0,"uploader":"Bclassics","files":1,"time":1365525818,"description":"-: Cover :- \n\n\n\n &lt;a href=&quot;\nhttp://desibbrg.org/viewer.php?file=64143464631073593781.jpg&quot; rel=&quot;nofollow&quot; target=&quot;_NEW&quot;&gt;\nhttp://desibbrg.org/viewer.php?file=64143464631073593781.jpg&lt;/a&gt;\n\n\n-: Screens :-\n\n\n\n    &lt;a href=&quot;\thttp://desibbrg.org/images/76534297098479745484.jpg&quot; rel=&quot;nofollow&quot; target=&quot;_NEW&quot;&gt;\thttp://desibbrg.org/images/76534297098479745484.jpg&lt;/a&gt;\n    &lt;a href=&quot;\thttp://desibbrg.org/images/35391916887328195470.jpg&quot; rel=&quot;nofollow&quot; target=&quot;_NEW&quot;&gt;\thttp://desibbrg.org/images/35391916887328195470.jpg&lt;/a&gt;\n    &lt;a href=&quot;\thttp://desibbrg.org/images/26772346621647707951.jpg&quot; rel=&quot;nofollow&quot; target=&quot;_NEW&quot;&gt;\thttp://desibbrg.org/images/26772346621647707951.jpg&lt;/a&gt;\n    &lt;a href=&quot;\thttp://desibbrg.org/images/01436673082828084986.jpg&quot; rel=&quot;nofollow&quot; target=&quot;_NEW&quot;&gt;\thttp://desibbrg.org/images/01436673082828084986.jpg&lt;/a&gt;\n    &lt;a href=&quot;\thttp://desibbrg.org/images/63503173299521472770.jpg&quot; rel=&quot;nofollow&quot; target=&quot;_NEW&quot;&gt;\thttp://desibbrg.org/images/63503173299521472770.jpg&lt;/a&gt;\n    &lt;a href=&quot;\thttp://desibbrg.org/images/38634354695731052168.jpg&quot; rel=&quot;nofollow&quot; target=&quot;_NEW&quot;&gt;\thttp://desibbrg.org/images/38634354695731052168.jpg&lt;/a&gt;\n    &lt;a href=&quot;\thttp://desibbrg.org/images/57658604798286151153.jpg&quot; rel=&quot;nofollow&quot; target=&quot;_NEW&quot;&gt;\thttp://desibbrg.org/images/57658604798286151153.jpg&lt;/a&gt;\n    &lt;a href=&quot;\thttp://desibbrg.org/images/29090802484841457010.jpg&quot; rel=&quot;nofollow&quot; target=&quot;_NEW&quot;&gt;\thttp://desibbrg.org/images/29090802484841457010.jpg&lt;/a&gt;\n    &lt;a href=&quot;\thttp://desibbrg.org/images/21536140027808218449.jpg&quot; rel=&quot;nofollow&quot; target=&quot;_NEW&quot;&gt;\thttp://desibbrg.org/images/21536140027808218449.jpg&lt;/a&gt;\n    &lt;a href=&quot;\thttp://desibbrg.org/images/62912235169469542538.jpg&quot; rel=&quot;nofollow&quot; target=&quot;_NEW&quot;&gt;\thttp://desibbrg.org/images/62912235169469542538.jpg&lt;/a&gt;\n    &lt;a href=&quot;\thttp://desibbrg.org/images/30711169540085251754.jpg&quot; rel=&quot;nofollow&quot; target=&quot;_NEW&quot;&gt;\thttp://desibbrg.org/images/30711169540085251754.jpg&lt;/a&gt;\n    &lt;a href=&quot;\thttp://desibbrg.org/images/62764395542313548781.jpg&quot; rel=&quot;nofollow&quot; target=&quot;_NEW&quot;&gt;\thttp://desibbrg.org/images/62764395542313548781.jpg&lt;/a&gt;\n    &lt;a href=&quot;\thttp://desibbrg.org/images/89279766886052820016.jpg&quot; rel=&quot;nofollow&quot; target=&quot;_NEW&quot;&gt;\thttp://desibbrg.org/images/89279766886052820016.jpg&lt;/a&gt;\n\n\n\n\n\n\n\n\n\n-: Info :-  \n\nGeneral\n\nFormat                           : MP4 Video\nFile size                        : 748 MiB\nDuration                         : 1h 59mn\nOverall bit rate                 : 872 Kbps\n\nVideo\nFormat                           : AVC\nFormat/Info                      : Advanced Video Codec\nFormat profile                   : &lt;a class=&quot;__cf_email__&quot; href=&quot;/cdn-cgi/l/email-protection&quot; data-cfemail=&quot;135e727a7d535f203d23&quot;&gt;[email&amp;#160;protected]&lt;/a&gt;&lt;script cf-hash='f9e31' type=&quot;text/javascript&quot;&gt;\n/* &lt;![CDATA[ */!function(){try{var t=&quot;currentScript&quot;in document?document.currentScript:function(){for(var t=document.getElementsByTagName(&quot;script&quot;),e=t.length;e--;)if(t[e].getAttribute(&quot;cf-hash&quot;))return t[e]}();if(t&amp;&amp;t.previousSibling){var e,r,n,i,c=t.previousSibling,a=c.getAttribute(&quot;data-cfemail&quot;);if(a){for(e=&quot;&quot;,r=parseInt(a.substr(0,2),16),n=2;a.length-n;n+=2)i=parseInt(a.substr(n,2),16)^r,e+=String.fromCharCode(i);e=document.createTextNode(e),c.parentNode.replaceChild(e,c)}}}catch(u){}}();/* ]]&gt; */&lt;/script&gt;\nFormat settings, CABAC           : Yes\nFormat settings, ReFrames        : 3 frames\nDuration                         : 1h 59mn\nBit rate                         : 734 Kbps\nWidth                            : 640 pixels\nHeight                           : 480 pixels\nDisplay aspect ratio             : 4:3\nFrame rate mode                  : Constant\nFrame rate                       : 29.970 fps\nColor space                      : YUV\nChroma subsampling               : 4:2:0\nBit depth                        : 8 bits\nScan type                        : Progressive\nBits/(Pixel*Frame)               : 0.080\nStream size                      : 630 MiB (84%)\n\nAudio\nFormat                           : AAC\nFormat/Info                      : Advanced Audio Codec\nFormat version                   : Version 4\nFormat profile                   : LC\nFormat settings, SBR             : No\nDuration                         : 1h 59mn\nBit rate                         : 129 Kbps\nChannel(s)                       : 2 channels\nChannel positions                : Front: L R\nSampling rate                    : 44.1 KHz\nBit depth                        : 16 bits\nStream size                      : 110 MiB (15%)\n\n\n &lt;a href=&quot;\nhttp://www.imdb.com/title/tt0061366/&quot; rel=&quot;nofollow&quot; target=&quot;_NEW&quot;&gt;\nhttp://www.imdb.com/title/tt0061366/&lt;/a&gt;\n\n\n\n\n    Banner\n    P S Pictures\n\n    Release Date\n    1 Jan 1967\n\n    Genre\n    Romance,Family Drama\n\n    Producer\n    Pachhi\n\n    Star Cast\n    Raj Kapoor.... Raj Singh\n    Rajshree.... Rita\n    Mehmood.... Albata\n    Amita.... Sheri\n    Achla Sachdev.... Raj's mom\n    Pran.... Pran\n    Prem Chopra\n    Raj Mehra.... J.J. Singh\n    Omprakash.... Raj's mom\n    Pachhi.... uncredited\n\n\n\nColor\nC\nLanguage\nHindi\nDirector\n\n    Pachhi\n\nEditor\n\n    Shyam\n\nCinematography\n\n    G Singh\n\n    Music Company\n    Saregama-HMV\n\n\n\nRaj Singh is the nephew and heir apparent of multi-millionaire J.J. Singh. J.J. Singh has to travel worldwide for business purposes, and he asks Raj to join him in Tokyo. An employee, Pran, who has been asked to take care of Raj's travel needs, decides to sabotage this trip in order to embarrass Raj. When Raj lands at Tokyo, he misses his uncle, who has had a change in plans, and is now in Europe. Raj must re-book his flight to go to Europe. Raj finds that he has no money for an air-ticket, or to go anywhere. All he has is $8 American dollars, which will not even be able to buy him a meal in Japan, leave alone travel anywhere.","torrent":{"xt":"urn:btih:6ece50828b037baabad1bf335d794ed2da7e726d","amp;dn":"Around+The+World+1967+DvDRip+X264+AAC","amp;tr":["udp%3A%2F%2Ftracker.openbittorrent.com%3A80","udp%3A%2F%2Fopen.demonii.com%3A1337","udp%3A%2F%2Ftracker.coppersurfer.tk%3A6969","udp%3A%2F%2Fexodus.desync.com%3A6969"],"infoHash":"6ece50828b037baabad1bf335d794ed2da7e726d","infoHashBuffer":{"type":"Buffer","data":[110,206,80,130,139,3,123,170,186,209,191,51,93,121,78,210,218,126,114,109]},"announce":[],"urlList":[]}}